<svg width="55" height="55" viewBox="0 0 55 55" fill="none" xmlns="http://www.w3.org/2000/svg">
<rect width="55" height="55" rx="15" fill="url(#paint0_linear_51_587)"/>
<path fill-rule="evenodd" clip-rule="evenodd" d="M12.4481 27.2094C20.4649 23.7166 25.8107 21.4139 28.4854 20.3014C36.1225 17.1249 37.7094 16.5731 38.7437 16.5549C38.9712 16.5509 39.4799 16.6073 39.8093 16.8746C40.0876 17.1004 40.1641 17.4053 40.2007 17.6193C40.2374 17.8334 40.283 18.3209 40.2467 18.7019C39.8329 23.0503 38.0421 33.6027 37.1311 38.473C36.7456 40.5338 35.9866 41.2248 35.2517 41.2924C33.6547 41.4394 32.4421 40.237 30.8953 39.2231C28.475 37.6365 27.1076 36.6489 24.7582 35.1007C22.0431 33.3115 23.8032 32.3281 25.3506 30.721C25.7555 30.3004 32.7918 23.9003 32.928 23.3197C32.945 23.2471 32.9608 22.9764 32.8 22.8335C32.6393 22.6906 32.4019 22.7395 32.2307 22.7783C31.9879 22.8334 28.1214 25.3891 20.631 30.4453C19.5335 31.1989 18.5394 31.5661 17.6487 31.5469C16.6669 31.5256 14.7781 30.9917 13.374 30.5353C11.6518 29.9754 10.283 29.6795 10.4022 28.7287C10.4643 28.2335 11.1462 27.7271 12.4481 27.2094Z" fill="white"/>
<defs>
<linearGradient id="paint0_linear_51_587" x1="27.5" y1="0" x2="27.5" y2="55" gradientUnits="userSpaceOnUse">
<stop stop-color="#475361"/>
<stop offset="1" stop-color="#1D1D1D"/>
</linearGradient>
</defs>
</svg>
