<svg width="23" height="23" viewBox="0 0 23 23" fill="none" xmlns="http://www.w3.org/2000/svg">
<path d="M0.611259 19.7119C-0.094134 20.4173 -0.094134 21.5609 0.611259 22.2662C1.31656 22.9716 2.46022 22.9716 3.16552 22.2662L0.611259 19.7119ZM22.2131 2.47046C22.2131 1.47301 21.4045 0.664307 20.407 0.664307H4.15159C3.15405 0.664307 2.34544 1.47301 2.34544 2.47046C2.34544 3.468 3.15405 4.27661 4.15159 4.27661H18.6008V18.7258C18.6008 19.7234 19.4094 20.532 20.407 20.532C21.4045 20.532 22.2131 19.7234 22.2131 18.7258V2.47046ZM3.16552 22.2662L21.6841 3.74759L19.1298 1.19333L0.611259 19.7119L3.16552 22.2662Z" fill="black"/>
</svg>
