<svg width="46" height="38" viewBox="0 0 46 38" fill="none" xmlns="http://www.w3.org/2000/svg">
<g clip-path="url(#clip0_51_244)">
<path d="M12.1529 30.6247C12.1529 27.5852 14.617 25.1211 17.6565 25.1211H23.1602V30.6247C23.1602 33.6643 20.6962 36.1284 17.6565 36.1284C14.617 36.1284 12.1529 33.6643 12.1529 30.6247Z" fill="#0ACF83"/>
<path d="M23.1592 19.6178C23.1592 16.5783 25.6233 14.1143 28.6629 14.1143C31.7025 14.1143 34.1665 16.5783 34.1665 19.6178C34.1665 22.6575 31.7025 25.1216 28.6629 25.1216C25.6233 25.1216 23.1592 22.6574 23.1592 19.6178Z" fill="#1ABCFE"/>
<path d="M12.1529 19.6175C12.1529 22.657 14.617 25.1211 17.6565 25.1211H23.1602V14.1138H17.6565C14.617 14.1138 12.1529 16.5778 12.1529 19.6175Z" fill="#A259FF"/>
<path d="M23.1592 3.10693V14.1142H28.6629C31.7025 14.1142 34.1665 11.6502 34.1665 8.61057C34.1665 5.571 31.7025 3.10693 28.6629 3.10693H23.1592Z" fill="#FF7262"/>
<path d="M12.1529 8.61058C12.1529 11.6502 14.617 14.1143 17.6565 14.1143H23.1602V3.10693H17.6565C14.617 3.10693 12.1529 5.571 12.1529 8.61058Z" fill="#FF0095"/>
</g>
<defs>
<clipPath id="clip0_51_244">
<rect width="44.61" height="36.39" fill="white" transform="translate(0.640656 0.741211)"/>
</clipPath>
</defs>
</svg>
